<svg version="1.1" id="Layer_1" xmlns="http://www.w3.org/2000/svg" xmlns:xlink="http://www.w3.org/1999/xlink" x="0px" y="0px"
	 width="100%" viewBox="0 0 500 500" enable-background="new 0 0 500 500" xml:space="preserve">
<path fill="#ffffff" opacity="1.000000" stroke="none" 
	d="
M348.000000,501.000000 
	C232.000031,501.000000 116.500053,501.000000 1.000062,501.000000 
	C1.000041,334.333405 1.000041,167.666794 1.000021,1.000151 
	C167.666550,1.000101 334.333099,1.000101 500.999756,1.000051 
	C500.999817,167.666519 500.999817,334.333038 500.999908,500.999786 
	C450.166656,501.000000 399.333344,501.000000 348.000000,501.000000 
M157.458755,160.244492 
	C157.202087,160.452377 156.966736,160.682098 156.146088,161.171585 
	C146.622757,168.657455 140.071426,178.532822 133.432251,189.241089 
	C130.300430,195.609116 125.307716,201.211914 124.910881,209.482574 
	C123.610962,214.370392 122.311050,219.258224 120.519676,224.601685 
	C119.743462,227.396133 118.967247,230.190567 117.748795,233.711807 
	C117.561989,239.814941 117.375183,245.918076 117.126205,252.953995 
	C116.721748,267.152435 116.535172,281.332458 120.939529,295.864777 
	C121.328842,297.111206 121.616852,298.400635 122.124207,299.596985 
	C125.033806,306.457764 127.995461,313.296448 131.094833,320.824982 
	C134.027618,325.223755 136.960419,329.622559 140.042038,334.726196 
	C145.742950,345.882050 155.340515,353.648163 164.449341,361.605927 
	C170.572083,366.955017 177.758011,371.403137 185.094269,374.965057 
	C193.729126,379.157471 203.040588,381.956390 212.714584,385.678589 
	C221.811478,386.732819 230.908356,387.787018 240.939194,388.915649 
	C252.419952,389.237244 263.872406,389.244324 275.791962,385.748260 
	C287.887878,383.857819 298.643860,378.404602 309.284851,372.803497 
	C310.904968,371.950745 312.858887,368.776123 312.405334,367.440582 
	C310.190674,360.919098 307.424072,354.550232 304.324219,348.393494 
	C303.703522,347.160706 300.518127,346.209137 298.983276,346.673767 
	C296.423065,347.448822 294.240662,349.471832 291.216156,351.157410 
	C279.682098,356.905701 267.753235,361.163269 254.626389,361.105438 
	C253.374954,361.099915 252.120468,361.790161 249.966492,362.060120 
	C238.690659,360.697052 227.414810,359.333954 215.719971,357.597015 
	C215.189865,357.444305 214.659775,357.291626 213.388824,356.972534 
	C210.306549,355.964539 207.224274,354.956543 203.798340,353.344421 
	C189.297241,345.190887 176.780930,334.655518 165.774643,321.313019 
	C162.220078,315.481659 158.665512,309.650299 155.035660,303.068695 
	C154.948761,302.412567 155.027039,301.675262 154.750488,301.112305 
	C149.468155,290.359070 147.086456,278.854492 145.926788,266.109497 
	C145.901321,259.715942 145.875839,253.322403 145.933685,246.085022 
	C145.926880,244.112350 145.920074,242.139664 146.111069,239.366913 
	C148.409836,230.564392 150.708603,221.761871 153.577866,212.604126 
	C159.754852,203.444885 165.931839,194.285660 172.680298,184.772858 
	C175.186478,182.196228 177.692657,179.619583 180.664871,176.632446 
	C181.793777,175.395203 182.922668,174.157959 184.652954,172.692291 
	C186.095261,171.726013 187.537567,170.759720 189.574249,169.513458 
	C192.366974,167.754715 195.159698,165.995972 198.531921,163.821167 
	C202.256958,162.121841 205.829651,159.663727 209.738312,158.878983 
	C218.232834,157.173584 219.619995,150.340958 221.837875,143.224625 
	C222.309692,141.099503 222.758789,138.969025 223.259033,136.850616 
	C223.897446,134.147095 224.577179,131.453339 225.239090,128.755371 
	C222.606064,128.305664 219.718719,126.929916 217.385208,127.570801 
	C208.527100,130.003677 199.848190,133.088959 190.435608,136.154022 
	C187.939255,137.509399 185.442917,138.864792 182.412445,140.608749 
	C181.585159,141.128540 180.749542,141.635590 179.931885,142.170074 
	C171.982101,147.366791 163.280167,151.633057 157.458755,160.244492 
M268.098175,141.813110 
	C269.674164,145.551941 271.250153,149.290787 273.062164,153.728226 
	C276.899231,155.658325 280.757751,157.547073 284.568207,159.528397 
	C290.022217,162.364334 295.441040,165.267929 301.085052,168.788849 
	C304.684570,171.899643 308.284088,175.010452 312.304016,178.649887 
	C315.824219,182.372009 319.214874,186.229630 322.913605,189.764999 
	C325.099487,191.854340 327.618988,194.681122 330.255890,195.006042 
	C337.805206,195.936295 345.494965,196.033051 353.121918,195.924271 
	C358.602173,195.846100 360.879883,192.777084 358.195648,188.235123 
	C354.151459,181.392090 348.839996,175.298019 343.913788,168.264984 
	C342.976929,167.496231 342.040039,166.727493 340.912231,165.301651 
	C334.123016,157.173813 326.706543,149.781158 316.879639,144.302658 
	C310.656342,139.380569 303.912842,135.493195 295.525848,133.399063 
	C293.700012,132.639374 291.874176,131.879669 289.327148,130.944901 
	C287.254059,130.279221 285.180939,129.613541 282.483215,128.440979 
	C277.579102,127.961723 272.681793,127.386345 267.768402,127.038223 
	C264.677887,126.819252 263.471893,128.596283 264.361603,131.440796 
	C265.387238,134.719910 266.734528,137.898392 268.098175,141.813110 
M280.095917,190.163498 
	C279.026764,187.123642 277.957611,184.083786 276.910339,180.294861 
	C273.342896,171.058365 269.898804,161.771637 266.164520,152.603104 
	C263.691803,146.532043 260.519501,140.739380 258.171234,134.625854 
	C255.111908,126.661186 252.704086,118.447723 249.713715,110.454384 
	C248.567429,107.390320 242.735764,106.789421 241.467957,109.650864 
	C238.682907,115.936676 236.566452,122.518723 233.801437,129.546326 
	C233.177795,130.970215 232.554153,132.394119 231.456573,134.380936 
	C230.320541,137.909012 229.184494,141.437088 227.678574,145.585770 
	C223.419754,156.668808 219.160950,167.751831 214.426178,179.381561 
	C213.195938,182.443100 211.835159,185.459641 210.761200,188.575043 
	C208.087082,196.332230 205.543533,204.134415 202.291306,212.197998 
	C199.802856,218.070786 197.183777,223.892242 194.851761,229.826508 
	C189.068512,244.543213 183.369446,259.293549 177.729538,274.065857 
	C174.445068,282.668732 171.339828,291.340027 167.778000,300.621582 
	C165.269363,305.139893 163.337204,309.851562 166.959213,314.551849 
	C170.975082,319.763275 175.133102,324.916382 179.719818,329.616119 
	C182.187668,332.144775 185.302200,331.766357 186.719589,327.892578 
	C189.503647,320.283539 192.147217,312.623138 195.184937,304.340332 
	C195.822235,303.002625 196.567505,301.704895 197.079834,300.320923 
	C201.421570,288.592438 205.715210,276.846161 210.035156,265.109589 
	C212.355728,258.805054 214.694229,252.507095 217.034103,246.209686 
	C220.646194,236.488342 224.266449,226.770035 228.264877,216.402344 
	C231.592896,206.988327 234.920914,197.574310 238.818192,187.710815 
	C239.534088,185.723251 240.006592,183.599731 241.023132,181.780136 
	C242.534241,179.075241 244.430069,176.585266 246.140182,174.739655 
	C247.145432,176.821838 248.150696,178.904022 249.104065,181.726822 
	C249.444489,183.140610 249.784912,184.554398 250.211258,186.689972 
	C251.723618,190.177109 253.235977,193.664246 254.873642,197.916306 
	C256.268585,201.962524 257.485535,206.081360 259.099854,210.038055 
	C261.568451,216.088654 264.311218,222.027374 266.998688,228.816116 
	C269.481537,236.294052 271.659576,243.897919 274.660706,251.161743 
	C275.415314,252.988220 278.694122,254.423859 281.014648,254.802368 
	C284.735443,255.409271 288.624969,255.025101 292.442444,254.987534 
	C301.924469,254.894196 304.112152,251.239349 300.400604,242.298981 
	C298.326080,237.301819 296.698181,232.119217 294.610596,226.367874 
	C292.711761,221.555984 290.812958,216.744110 288.904297,211.208405 
	C287.526581,207.669693 286.237854,204.092941 284.745300,200.603363 
	C283.346680,197.333496 281.732300,194.155914 280.095917,190.163498 
M147.916763,388.918884 
	C150.050583,388.950470 152.184357,389.004761 154.318237,389.009644 
	C163.429245,389.030518 164.582260,388.144653 167.727982,378.429413 
	C169.016479,373.173737 166.848373,369.602448 162.526016,366.691284 
	C159.254929,364.488190 156.286743,361.808533 153.320465,359.186340 
	C149.487076,355.797729 146.085922,356.432190 144.143707,361.261810 
	C141.193130,368.598877 138.350403,375.981293 135.592575,383.393097 
	C134.442322,386.484375 135.312698,388.727753 139.005814,388.880127 
	C141.661591,388.989716 144.327576,388.852264 147.916763,388.918884 
M343.953125,356.102661 
	C338.430237,341.548737 332.900513,326.997437 327.388397,312.439423 
	C325.578766,307.659973 323.662994,302.912872 322.074768,298.059692 
	C320.604584,293.567139 317.891724,291.028595 313.042572,291.035431 
	C308.381836,291.042023 303.719818,290.947540 299.060608,291.027527 
	C292.099243,291.147034 290.636414,294.058289 293.216553,300.662384 
	C299.002716,315.472351 304.352020,330.452362 310.024231,345.307739 
	C313.190277,353.599487 316.646790,361.780273 320.070129,370.764526 
	C321.777832,375.532440 323.168945,380.452576 325.351715,384.992065 
	C326.204163,386.764893 328.745392,388.623047 330.675171,388.809479 
	C336.101929,389.333710 341.610657,389.026978 347.087036,389.015381 
	C356.013397,388.996521 356.585114,388.079529 353.104309,379.599274 
	C352.665558,378.530365 352.434601,377.376617 352.001862,376.304749 
	C349.379730,369.810272 346.726959,363.328186 343.953125,356.102661 
M250.905579,285.902252 
	C278.721008,285.937042 306.536438,285.958588 334.351807,286.016907 
	C340.522552,286.029816 341.186615,287.312592 339.101654,293.202271 
	C337.183777,298.619812 334.599030,304.129120 334.279327,309.710876 
	C333.745300,319.035400 338.746216,327.120453 342.878815,335.157532 
	C345.377228,340.016541 347.185211,339.956116 350.078156,335.447784 
	C353.736359,329.746857 357.761963,324.194122 360.673798,318.119537 
	C367.431702,304.021484 373.019409,289.469055 372.969269,273.463623 
	C372.926849,259.911011 375.029449,259.944580 359.428955,259.993011 
	C323.287384,260.105194 287.145599,260.140381 250.068771,260.115662 
	C241.589996,260.102295 233.089722,259.742889 224.644348,260.267334 
	C221.771133,260.445740 217.830078,262.133514 216.490524,264.387604 
	C213.750183,268.998840 212.365646,274.434326 210.566864,279.580750 
	C209.089386,283.807861 210.552032,285.936981 215.056931,285.950317 
	C226.693497,285.984772 238.330490,285.872833 250.905579,285.902252 
z"/>
<path fill="#00094B" opacity="1.000000" stroke="none" 
	d="
M251.003906,260.206787 
	C287.145599,260.140381 323.287384,260.105194 359.428955,259.993011 
	C375.029449,259.944580 372.926849,259.911011 372.969269,273.463623 
	C373.019409,289.469055 367.431702,304.021484 360.673798,318.119537 
	C357.761963,324.194122 353.736359,329.746857 350.078156,335.447784 
	C347.185211,339.956116 345.377228,340.016541 342.878815,335.157532 
	C338.746216,327.120453 333.745300,319.035400 334.279327,309.710876 
	C334.599030,304.129120 337.183777,298.619812 339.101654,293.202271 
	C341.186615,287.312592 340.522552,286.029816 334.351807,286.016907 
	C306.536438,285.958588 278.721008,285.937042 250.350281,285.487915 
	C249.047974,277.800171 246.164871,271.961365 238.999573,268.999390 
	C239.000000,269.000000 239.001221,269.001190 239.152832,268.705627 
	C241.854431,264.173676 244.739639,264.050812 248.637939,267.010254 
	C253.476288,270.683350 255.716217,269.994080 257.164673,265.646271 
	C254.998886,263.734070 253.001404,261.970428 251.003906,260.206787 
z"/>
<path fill="#010A51" opacity="1.000000" stroke="none" 
	d="
M227.883240,217.050446 
	C224.266449,226.770035 220.646194,236.488342 217.034103,246.209686 
	C214.694229,252.507095 212.355728,258.805054 210.035156,265.109589 
	C205.715210,276.846161 201.421570,288.592438 197.079834,300.320923 
	C196.567505,301.704895 195.822235,303.002625 194.588257,304.664124 
	C190.157928,303.864471 185.990509,303.348785 182.570999,301.471069 
	C177.778061,298.839203 173.292282,297.378204 168.153961,299.980530 
	C171.339828,291.340027 174.445068,282.668732 177.729538,274.065857 
	C183.369446,259.293549 189.068512,244.543213 194.851761,229.826508 
	C197.183777,223.892242 199.802856,218.070786 202.965912,212.172806 
	C205.767334,212.095795 207.958130,212.354111 210.008377,211.931122 
	C215.132889,210.873871 219.772110,210.676361 223.424942,215.484085 
	C224.220352,216.530991 226.361755,216.555222 227.883240,217.050446 
z"/>
<path fill="#030C50" opacity="1.000000" stroke="none" 
	d="
M166.093643,321.925232 
	C176.780930,334.655518 189.297241,345.190887 203.640656,353.781219 
	C199.190308,356.208191 200.058914,359.390778 201.774200,362.507507 
	C203.601364,365.827484 206.361099,365.881989 209.369690,364.066284 
	C213.500931,361.572998 216.722321,362.899109 219.658783,366.201508 
	C217.212967,367.622742 214.141052,368.359375 213.069183,370.237488 
	C210.408020,374.900299 207.826508,380.038605 212.058655,385.359558 
	C203.040588,381.956390 193.729126,379.157471 185.094269,374.965057 
	C177.758011,371.403137 170.572083,366.955017 164.449341,361.605927 
	C155.340515,353.648163 145.742950,345.882050 140.337173,334.302612 
	C147.294617,331.608765 147.854385,329.952057 145.294128,321.132507 
	C147.087585,322.570740 148.413208,324.161926 150.103439,325.086792 
	C151.837341,326.035614 154.196075,327.221069 155.807465,326.734283 
	C159.393219,325.651093 162.683151,323.588593 166.093643,321.925232 
z"/>
<path fill="#010848" opacity="1.000000" stroke="none" 
	d="
M319.972382,370.011078 
	C316.646790,361.780273 313.190277,353.599487 310.024231,345.307739 
	C304.352020,330.452362 299.002716,315.472351 293.216553,300.662384 
	C290.636414,294.058289 292.099243,291.147034 299.060608,291.027527 
	C303.719818,290.947540 308.381836,291.042023 313.042572,291.035431 
	C317.891724,291.028595 320.604584,293.567139 322.074768,298.059692 
	C323.662994,302.912872 325.578766,307.659973 327.388397,312.439423 
	C332.900513,326.997437 338.430237,341.548737 343.672119,356.580627 
	C342.071716,357.120026 340.698639,357.449524 339.441864,357.197968 
	C332.931274,355.894989 328.682007,359.178436 325.035583,363.942810 
	C323.435883,366.032928 321.665344,367.992310 319.972382,370.011078 
z"/>
<path fill="#1D2249" opacity="1.000000" stroke="none" 
	d="
M228.048462,144.965164 
	C229.184494,141.437088 230.320541,137.909012 231.853058,134.411987 
	C237.416229,139.737640 242.582916,145.032257 247.749619,150.326874 
	C248.327728,146.926254 247.789078,144.485764 247.958206,142.095352 
	C248.392807,135.952118 246.316208,132.370605 240.485718,130.402542 
	C238.454208,129.716797 236.283936,129.442200 234.177032,128.979828 
	C236.566452,122.518723 238.682907,115.936676 241.467957,109.650864 
	C242.735764,106.789421 248.567429,107.390320 249.713715,110.454384 
	C252.704086,118.447723 255.111908,126.661186 258.171234,134.625854 
	C260.519501,140.739380 263.691803,146.532043 266.164520,152.603104 
	C269.898804,161.771637 273.342896,171.058365 276.545410,180.744019 
	C271.457611,182.177155 266.734711,183.161163 261.928650,183.800232 
	C261.952484,164.989761 243.665680,150.195511 228.048462,144.965164 
z"/>
<path fill="#010942" opacity="1.000000" stroke="none" 
	d="
M275.018127,385.846191 
	C263.872406,389.244324 252.419952,389.237244 240.585327,388.583344 
	C241.694427,385.581360 240.896408,383.728363 238.497910,381.948151 
	C237.563461,381.254578 237.469360,379.428772 236.992477,378.118713 
	C238.290390,377.665283 239.559677,377.040924 240.896057,376.817078 
	C241.823395,376.661713 242.841080,377.072693 243.821884,377.204620 
	C247.330994,377.676636 248.944733,376.603058 247.658539,372.788177 
	C246.228088,368.545563 248.008636,365.162415 250.867386,362.157410 
	C252.120468,361.790161 253.374954,361.099915 254.626389,361.105438 
	C267.753235,361.163269 279.682098,356.905701 291.961609,351.089294 
	C293.528961,351.116699 294.559448,350.930328 295.136322,351.357117 
	C297.502655,353.107727 299.730835,355.045135 302.009827,356.913818 
	C299.778473,357.826935 297.613922,358.997101 295.301422,359.597961 
	C290.900543,360.741425 286.799927,361.929047 287.250305,367.768219 
	C287.486877,370.835815 285.697723,371.888824 282.975555,371.914734 
	C280.435608,371.938904 277.895203,371.919891 276.501099,371.919891 
	C275.947052,377.123016 275.482574,381.484619 275.018127,385.846191 
z"/>
<path fill="#09114D" opacity="1.000000" stroke="none" 
	d="
M227.863510,145.275467 
	C243.665680,150.195511 261.952484,164.989761 261.913666,184.028519 
	C261.981842,184.601761 261.944763,185.061066 261.611450,184.928680 
	C257.254517,182.274567 253.666290,183.896469 250.125351,185.968185 
	C249.784912,184.554398 249.444489,183.140610 249.401016,181.221100 
	C252.210342,176.944855 251.656250,175.893066 246.162201,174.003815 
	C244.430069,176.585266 242.534241,179.075241 241.023132,181.780136 
	C240.006592,183.599731 239.534088,185.723251 238.205185,187.745331 
	C232.040924,186.233246 226.411163,184.913315 220.976242,183.030869 
	C218.735870,182.254883 216.914215,180.269943 214.902130,178.834854 
	C219.160950,167.751831 223.419754,156.668808 227.863510,145.275467 
z"/>
<path fill="#020948" opacity="1.000000" stroke="none" 
	d="
M250.416931,362.108765 
	C248.008636,365.162415 246.228088,368.545563 247.658539,372.788177 
	C248.944733,376.603058 247.330994,377.676636 243.821884,377.204620 
	C242.841080,377.072693 241.823395,376.661713 240.896057,376.817078 
	C239.559677,377.040924 238.290390,377.665283 236.992477,378.118713 
	C237.469360,379.428772 237.563461,381.254578 238.497910,381.948151 
	C240.896408,383.728363 241.694427,385.581360 240.118362,388.546143 
	C230.908356,387.787018 221.811478,386.732819 212.386627,385.519073 
	C207.826508,380.038605 210.408020,374.900299 213.069183,370.237488 
	C214.141052,368.359375 217.212967,367.622742 219.658783,366.201508 
	C216.722321,362.899109 213.500931,361.572998 209.369690,364.066284 
	C206.361099,365.881989 203.601364,365.827484 201.774200,362.507507 
	C200.058914,359.390778 199.190308,356.208191 203.812469,354.083252 
	C207.224274,354.956543 210.306549,355.964539 214.005203,357.168457 
	C215.127380,357.566528 215.633179,357.768707 216.138977,357.970856 
	C227.414810,359.333954 238.690659,360.697052 250.416931,362.108765 
z"/>
<path fill="#020948" opacity="1.000000" stroke="none" 
	d="
M120.689682,295.145844 
	C116.535172,281.332458 116.721748,267.152435 117.555283,252.496506 
	C118.962929,252.113373 120.042519,251.944580 120.903389,252.302246 
	C125.861687,254.362244 128.695038,252.079697 131.383209,248.062546 
	C133.002945,245.642044 135.777817,243.994522 138.300125,242.192535 
	C140.994553,243.899918 143.422455,245.414398 145.850372,246.928864 
	C145.875839,253.322403 145.901321,259.715942 145.602722,266.737305 
	C141.467926,270.632141 135.579620,273.239166 134.287735,277.306244 
	C131.755661,285.277527 125.756981,289.651428 120.689682,295.145844 
z"/>
<path fill="#010A51" opacity="1.000000" stroke="none" 
	d="
M120.814606,295.505310 
	C125.756981,289.651428 131.755661,285.277527 134.287735,277.306244 
	C135.579620,273.239166 141.467926,270.632141 145.560745,267.207275 
	C147.086456,278.854492 149.468155,290.359070 154.750488,301.112305 
	C155.027039,301.675262 154.948761,302.412567 154.895203,303.757019 
	C151.844101,305.621429 148.933472,306.797546 145.792633,307.803284 
	C141.057037,306.021973 138.533630,308.971588 136.249588,311.941437 
	C134.270691,314.514526 132.693939,317.396942 130.939453,320.142639 
	C127.995461,313.296448 125.033806,306.457764 122.124207,299.596985 
	C121.616852,298.400635 121.328842,297.111206 120.814606,295.505310 
z"/>
<path fill="#010A51" opacity="1.000000" stroke="none" 
	d="
M238.999130,268.998779 
	C246.164871,271.961365 249.047974,277.800171 249.881165,285.446472 
	C238.330490,285.872833 226.693497,285.984772 215.056931,285.950317 
	C210.552032,285.936981 209.089386,283.807861 210.566864,279.580750 
	C212.365646,274.434326 213.750183,268.998840 216.490524,264.387604 
	C217.830078,262.133514 221.771133,260.445740 224.644348,260.267334 
	C233.089722,259.742889 241.589996,260.102295 250.536346,260.161224 
	C253.001404,261.970428 254.998886,263.734070 257.164673,265.646271 
	C255.716217,269.994080 253.476288,270.683350 248.637939,267.010254 
	C244.739639,264.050812 241.854431,264.173676 239.056076,268.765015 
	C238.871521,269.079559 238.935333,269.039185 238.999130,268.998779 
z"/>
<path fill="#0A1039" opacity="1.000000" stroke="none" 
	d="
M172.108826,185.126419 
	C165.931839,194.285660 159.754852,203.444885 153.043564,212.532379 
	C149.034332,211.703568 145.559418,210.946487 141.991150,209.813416 
	C141.047379,207.459305 140.748535,204.595276 139.248154,203.661179 
	C133.660965,200.182755 134.491287,195.135406 135.348846,189.939270 
	C140.089600,187.046707 145.134933,184.872604 148.665039,181.230057 
	C152.860397,176.901077 157.241318,173.511795 163.314087,171.988647 
	C166.801529,173.851791 169.954178,175.568787 172.961121,177.567215 
	C171.660248,180.185287 169.341583,182.408966 172.108826,185.126419 
z"/>
<path fill="#0A1460" opacity="1.000000" stroke="none" 
	d="
M341.103180,165.958740 
	C342.040039,166.727493 342.976929,167.496231 344.000275,168.980377 
	C344.217987,170.849701 344.288727,172.014313 344.490723,173.155716 
	C345.439606,178.517792 344.746857,179.290390 339.631256,177.990463 
	C336.582672,177.215836 333.351807,176.573532 330.671265,175.048477 
	C323.417694,170.921692 317.365570,172.331024 311.883606,178.121262 
	C308.284088,175.010452 304.684570,171.899643 301.106995,168.065521 
	C301.542847,163.744003 302.019775,160.151672 302.354401,156.546127 
	C302.761108,152.163879 301.523071,148.564224 297.826355,145.707321 
	C296.530334,144.705719 295.772949,142.482864 295.568329,140.724716 
	C295.306641,138.475922 295.852722,136.133118 296.050690,133.830826 
	C303.912842,135.493195 310.656342,139.380569 316.689026,144.818909 
	C309.902222,151.458298 311.773041,160.102753 320.612396,162.410324 
	C327.295959,164.155090 334.262543,164.815643 341.103180,165.958740 
z"/>
<path fill="#010B5E" opacity="1.000000" stroke="none" 
	d="
M320.021240,370.387817 
	C321.665344,367.992310 323.435883,366.032928 325.035583,363.942810 
	C328.682007,359.178436 332.931274,355.894989 339.441864,357.197968 
	C340.698639,357.449524 342.071716,357.120026 343.737793,356.950256 
	C346.726959,363.328186 349.379730,369.810272 352.001862,376.304749 
	C352.434601,377.376617 352.665558,378.530365 353.104309,379.599274 
	C356.585114,388.079529 356.013397,388.996521 347.087036,389.015381 
	C341.610657,389.026978 336.101929,389.333710 330.675171,388.809479 
	C328.745392,388.623047 326.204163,386.764893 325.351715,384.992065 
	C323.168945,380.452576 321.777832,375.532440 320.021240,370.387817 
z"/>
<path fill="#010942" opacity="1.000000" stroke="none" 
	d="
M214.664154,179.108215 
	C216.914215,180.269943 218.735870,182.254883 220.976242,183.030869 
	C226.411163,184.913315 232.040924,186.233246 237.920563,187.970062 
	C234.920914,197.574310 231.592896,206.988327 228.074066,216.726410 
	C226.361755,216.555222 224.220352,216.530991 223.424942,215.484085 
	C219.772110,210.676361 215.132889,210.873871 210.008377,211.931122 
	C207.958130,212.354111 205.767334,212.095795 203.294037,212.033081 
	C205.543533,204.134415 208.087082,196.332230 210.761200,188.575043 
	C211.835159,185.459641 213.195938,182.443100 214.664154,179.108215 
z"/>
<path fill="#030C54" opacity="1.000000" stroke="none" 
	d="
M312.093811,178.385574 
	C317.365570,172.331024 323.417694,170.921692 330.671265,175.048477 
	C333.351807,176.573532 336.582672,177.215836 339.631256,177.990463 
	C344.746857,179.290390 345.439606,178.517792 344.490723,173.155716 
	C344.288727,172.014313 344.217987,170.849701 344.076996,169.290680 
	C348.839996,175.298019 354.151459,181.392090 358.195648,188.235123 
	C360.879883,192.777084 358.602173,195.846100 353.121918,195.924271 
	C345.494965,196.033051 337.805206,195.936295 330.255890,195.006042 
	C327.618988,194.681122 325.099487,191.854340 322.913605,189.764999 
	C319.214874,186.229630 315.824219,182.372009 312.093811,178.385574 
z"/>
<path fill="#00094B" opacity="1.000000" stroke="none" 
	d="
M294.869019,227.020172 
	C296.698181,232.119217 298.326080,237.301819 300.400604,242.298981 
	C304.112152,251.239349 301.924469,254.894196 292.442444,254.987534 
	C288.624969,255.025101 284.735443,255.409271 281.014648,254.802368 
	C278.694122,254.423859 275.415314,252.988220 274.660706,251.161743 
	C271.659576,243.897919 269.481537,236.294052 267.330963,228.371094 
	C276.836823,230.776642 285.818726,227.871582 294.869019,227.020172 
z"/>
<path fill="#010848" opacity="1.000000" stroke="none" 
	d="
M275.405029,385.797241 
	C275.482574,381.484619 275.947052,377.123016 276.501099,371.919891 
	C277.895203,371.919891 280.435608,371.938904 282.975555,371.914734 
	C285.697723,371.888824 287.486877,370.835815 287.250305,367.768219 
	C286.799927,361.929047 290.900543,360.741425 295.301422,359.597961 
	C297.613922,358.997101 299.778473,357.826935 302.009827,356.913818 
	C299.730835,355.045135 297.502655,353.107727 295.136322,351.357117 
	C294.559448,350.930328 293.528961,351.116699 292.303101,350.995300 
	C294.240662,349.471832 296.423065,347.448822 298.983276,346.673767 
	C300.518127,346.209137 303.703522,347.160706 304.324219,348.393494 
	C307.424072,354.550232 310.190674,360.919098 312.405334,367.440582 
	C312.858887,368.776123 310.904968,371.950745 309.284851,372.803497 
	C298.643860,378.404602 287.887878,383.857819 275.405029,385.797241 
z"/>
<path fill="#010942" opacity="1.000000" stroke="none" 
	d="
M294.739807,226.694031 
	C285.818726,227.871582 276.836823,230.776642 267.300415,227.969833 
	C264.311218,222.027374 261.568451,216.088654 259.099854,210.038055 
	C257.485535,206.081360 256.268585,201.962524 255.215820,197.507080 
	C256.365967,197.057678 257.173950,197.017502 258.246887,197.183319 
	C262.872314,200.330978 266.959106,203.856613 271.664764,206.061539 
	C277.131287,208.622986 283.140472,210.026260 288.914124,211.932220 
	C290.812958,216.744110 292.711761,221.555984 294.739807,226.694031 
z"/>
<path fill="#03040C" opacity="1.000000" stroke="none" 
	d="
M142.084488,210.189423 
	C145.559418,210.946487 149.034332,211.703568 152.758316,212.709991 
	C150.708603,221.761871 148.409836,230.564392 145.664520,239.700592 
	C143.782059,239.354187 142.346161,238.674118 140.699310,237.752563 
	C138.332962,236.353836 136.177567,235.196564 133.700317,233.981232 
	C132.947525,233.856735 132.516602,233.790329 131.926849,233.446167 
	C128.182388,230.160965 124.596756,227.153503 121.011124,224.146042 
	C122.311050,219.258224 123.610962,214.370392 125.523148,209.190002 
	C131.451767,209.328110 136.768127,209.758759 142.084488,210.189423 
z"/>
<path fill="#06105C" opacity="1.000000" stroke="none" 
	d="
M146.988998,388.825012 
	C144.327576,388.852264 141.661591,388.989716 139.005814,388.880127 
	C135.312698,388.727753 134.442322,386.484375 135.592575,383.393097 
	C138.350403,375.981293 141.193130,368.598877 144.143707,361.261810 
	C146.085922,356.432190 149.487076,355.797729 153.320465,359.186340 
	C156.286743,361.808533 159.254929,364.488190 162.526016,366.691284 
	C166.848373,369.602448 169.016479,373.173737 167.118011,378.858521 
	C164.252289,379.725769 161.718719,379.655121 159.796814,380.704590 
	C155.369598,383.122162 151.239609,386.083984 146.988998,388.825012 
z"/>
<path fill="#00094B" opacity="1.000000" stroke="none" 
	d="
M167.965973,300.301056 
	C173.292282,297.378204 177.778061,298.839203 182.570999,301.471069 
	C185.990509,303.348785 190.157928,303.864471 194.420258,304.985962 
	C192.147217,312.623138 189.503647,320.283539 186.719589,327.892578 
	C185.302200,331.766357 182.187668,332.144775 179.719818,329.616119 
	C175.133102,324.916382 170.975082,319.763275 166.959213,314.551849 
	C163.337204,309.851562 165.269363,305.139893 167.965973,300.301056 
z"/>
<path fill="#181E4C" opacity="1.000000" stroke="none" 
	d="
M295.788269,133.614944 
	C295.852722,136.133118 295.306641,138.475922 295.568329,140.724716 
	C295.772949,142.482864 296.530334,144.705719 297.826355,145.707321 
	C301.523071,148.564224 302.761108,152.163879 302.354401,156.546127 
	C302.019775,160.151672 301.542847,163.744003 301.001953,167.742416 
	C295.441040,165.267929 290.022217,162.364334 284.568207,159.528397 
	C280.757751,157.547073 276.899231,155.658325 273.295197,153.283630 
	C277.575989,151.600494 278.488861,148.440811 278.500427,144.727676 
	C278.513885,140.416336 280.181824,137.147461 284.809631,136.809006 
	C288.665924,136.526993 289.981873,134.562057 290.048340,131.119980 
	C291.874176,131.879669 293.700012,132.639374 295.788269,133.614944 
z"/>
<path fill="#070E45" opacity="1.000000" stroke="none" 
	d="
M182.946579,140.220184 
	C185.442917,138.864792 187.939255,137.509399 190.849487,136.339600 
	C191.827438,137.380875 192.391479,138.236572 193.047424,139.465607 
	C193.433472,141.892197 193.727631,143.945450 193.686813,146.134308 
	C191.074707,147.446548 186.104492,147.838837 188.341568,151.213608 
	C191.752960,156.359909 191.394684,160.484192 188.812469,165.396332 
	C188.220871,166.521698 188.890625,168.310150 188.979874,169.793427 
	C187.537567,170.759720 186.095261,171.726013 184.249313,172.466522 
	C182.693176,167.533905 179.336670,165.557831 174.848465,165.046356 
	C171.893082,164.709564 168.927872,164.458923 165.954987,163.892380 
	C165.936203,163.430115 165.929504,163.245178 166.169083,162.817261 
	C169.857193,157.996338 173.319855,153.433823 176.733246,148.834747 
	C178.843124,145.991989 180.878021,143.093597 182.946579,140.220184 
z"/>
<path fill="#09114D" opacity="1.000000" stroke="none" 
	d="
M194.021790,145.998703 
	C193.727631,143.945450 193.433472,141.892197 193.503021,139.449158 
	C203.286087,140.188004 213.047012,139.350723 221.867905,143.924133 
	C219.619995,150.340958 218.232834,157.173584 209.738312,158.878983 
	C205.829651,159.663727 202.256958,162.121841 198.252991,163.590302 
	C197.157913,157.458389 199.433655,150.853485 194.021790,145.998703 
z"/>
<path fill="#091155" opacity="1.000000" stroke="none" 
	d="
M288.909210,211.570312 
	C283.140472,210.026260 277.131287,208.622986 271.664764,206.061539 
	C266.959106,203.856613 262.872314,200.330978 258.328979,196.834167 
	C259.432037,193.182281 260.718048,190.085526 262.334290,187.144928 
	C268.513977,188.513275 274.363403,189.725494 280.212860,190.937714 
	C281.732300,194.155914 283.346680,197.333496 284.745300,200.603363 
	C286.237854,204.092941 287.526581,207.669693 288.909210,211.570312 
z"/>
<path fill="#1D2249" opacity="1.000000" stroke="none" 
	d="
M221.852890,143.574371 
	C213.047012,139.350723 203.286087,140.188004 193.411133,139.075836 
	C192.391479,138.236572 191.827438,137.380875 191.182831,136.227737 
	C199.848190,133.088959 208.527100,130.003677 217.385208,127.570801 
	C219.718719,126.929916 222.606064,128.305664 225.239090,128.755371 
	C224.577179,131.453339 223.897446,134.147095 223.259033,136.850616 
	C222.758789,138.969025 222.309692,141.099503 221.852890,143.574371 
z"/>
<path fill="#191B2D" opacity="1.000000" stroke="none" 
	d="
M165.922821,163.060242 
	C165.929504,163.245178 165.936203,163.430115 165.783234,164.170914 
	C164.742157,167.098694 163.860733,169.470596 162.979324,171.842514 
	C157.241318,173.511795 152.860397,176.901077 148.665039,181.230057 
	C145.134933,184.872604 140.089600,187.046707 135.175476,189.734802 
	C134.411316,189.320358 134.186722,189.041962 133.962128,188.763580 
	C140.071426,178.532822 146.622757,168.657455 156.761459,161.232712 
	C158.935730,161.833298 160.494644,162.372742 162.441345,162.928528 
	C163.860382,162.983322 164.891602,163.021790 165.922821,163.060242 
z"/>
<path fill="#010942" opacity="1.000000" stroke="none" 
	d="
M132.085663,233.723907 
	C132.516602,233.790329 132.947525,233.856735 133.825562,234.276489 
	C134.883499,235.523743 135.494324,236.417664 136.223160,237.603165 
	C136.905319,239.263046 137.469467,240.631363 138.033600,241.999664 
	C135.777817,243.994522 133.002945,245.642044 131.383209,248.062546 
	C128.695038,252.079697 125.861687,254.362244 120.903389,252.302246 
	C120.042519,251.944580 118.962929,252.113373 117.586365,252.030121 
	C117.375183,245.918076 117.561989,239.814941 118.408600,233.362076 
	C123.407494,233.249542 127.746582,233.486740 132.085663,233.723907 
z"/>
<path fill="#030C54" opacity="1.000000" stroke="none" 
	d="
M341.007690,165.630188 
	C334.262543,164.815643 327.295959,164.155090 320.612396,162.410324 
	C311.773041,160.102753 309.902222,151.458298 316.791748,145.154037 
	C326.706543,149.781158 334.123016,157.173813 341.007690,165.630188 
z"/>
<path fill="#010848" opacity="1.000000" stroke="none" 
	d="
M146.022827,307.973633 
	C148.933472,306.797546 151.844101,305.621429 154.932846,304.132141 
	C158.665512,309.650299 162.220078,315.481659 165.934143,321.619141 
	C162.683151,323.588593 159.393219,325.651093 155.807465,326.734283 
	C154.196075,327.221069 151.837341,326.035614 150.103439,325.086792 
	C148.413208,324.161926 147.087585,322.570740 145.268097,320.824341 
	C145.297150,316.242279 145.659988,312.107941 146.022827,307.973633 
z"/>
<path fill="#010942" opacity="1.000000" stroke="none" 
	d="
M145.792633,307.803284 
	C145.659988,312.107941 145.297150,316.242279 144.960358,320.684753 
	C147.854385,329.952057 147.294617,331.608765 140.262756,333.950165 
	C136.960419,329.622559 134.027618,325.223755 131.017136,320.483826 
	C132.693939,317.396942 134.270691,314.514526 136.249588,311.941437 
	C138.533630,308.971588 141.057037,306.021973 145.792633,307.803284 
z"/>
<path fill="#171C40" opacity="1.000000" stroke="none" 
	d="
M289.687744,131.032440 
	C289.981873,134.562057 288.665924,136.526993 284.809631,136.809006 
	C280.181824,137.147461 278.513885,140.416336 278.500427,144.727676 
	C278.488861,148.440811 277.575989,151.600494 273.177185,152.934326 
	C271.250153,149.290787 269.674164,145.551941 268.220215,141.179932 
	C269.725098,133.373505 273.549744,129.203186 281.377777,129.820740 
	C281.928070,129.864151 282.529968,129.254059 283.107849,128.947845 
	C285.180939,129.613541 287.254059,130.279221 289.687744,131.032440 
z"/>
<path fill="#101224" opacity="1.000000" stroke="none" 
	d="
M163.314087,171.988647 
	C163.860733,169.470596 164.742157,167.098694 165.795319,164.448242 
	C168.927872,164.458923 171.893082,164.709564 174.848465,165.046356 
	C179.336670,165.557831 182.693176,167.533905 183.948608,172.580750 
	C182.922668,174.157959 181.793777,175.395203 179.984589,176.798630 
	C177.238495,177.071793 175.172653,177.178787 173.106827,177.285782 
	C169.954178,175.568787 166.801529,173.851791 163.314087,171.988647 
z"/>
<path fill="#171C40" opacity="1.000000" stroke="none" 
	d="
M233.989227,129.263077 
	C236.283936,129.442200 238.454208,129.716797 240.485718,130.402542 
	C246.316208,132.370605 248.392807,135.952118 247.958206,142.095352 
	C247.789078,144.485764 248.327728,146.926254 247.749619,150.326874 
	C242.582916,145.032257 237.416229,139.737640 232.090027,134.130524 
	C232.554153,132.394119 233.177795,130.970215 233.989227,129.263077 
z"/>
<path fill="#171C40" opacity="1.000000" stroke="none" 
	d="
M133.697189,189.002335 
	C134.186722,189.041962 134.411316,189.320358 134.809296,189.803192 
	C134.491287,195.135406 133.660965,200.182755 139.248154,203.661179 
	C140.748535,204.595276 141.047379,207.459305 141.991150,209.813416 
	C136.768127,209.758759 131.451767,209.328110 125.744514,208.892059 
	C125.307716,201.211914 130.300430,195.609116 133.697189,189.002335 
z"/>
<path fill="#0A1039" opacity="1.000000" stroke="none" 
	d="
M193.686829,146.134308 
	C199.433655,150.853485 197.157913,157.458389 197.963242,163.798309 
	C195.159698,165.995972 192.366974,167.754715 189.277069,169.653442 
	C188.890625,168.310150 188.220871,166.521698 188.812469,165.396332 
	C191.394684,160.484192 191.752960,156.359909 188.341568,151.213608 
	C186.104492,147.838837 191.074707,147.446548 193.686829,146.134308 
z"/>
<path fill="#091155" opacity="1.000000" stroke="none" 
	d="
M166.169083,162.817261 
	C164.891602,163.021790 163.860382,162.983322 162.247009,162.673523 
	C160.401581,161.595169 159.138321,160.788147 157.875061,159.981125 
	C163.280167,151.633057 171.982101,147.366791 179.931885,142.170074 
	C180.749542,141.635590 181.585159,141.128540 182.679504,140.414459 
	C180.878021,143.093597 178.843124,145.991989 176.733246,148.834747 
	C173.319855,153.433823 169.857193,157.996338 166.169083,162.817261 
z"/>
<path fill="#030C50" opacity="1.000000" stroke="none" 
	d="
M147.452881,388.871948 
	C151.239609,386.083984 155.369598,383.122162 159.796814,380.704590 
	C161.718719,379.655121 164.252289,379.725769 166.906952,379.191162 
	C164.582260,388.144653 163.429245,389.030518 154.318237,389.009644 
	C152.184357,389.004761 150.050583,388.950470 147.452881,388.871948 
z"/>
<path fill="#030C54" opacity="1.000000" stroke="none" 
	d="
M262.004059,186.988785 
	C260.718048,190.085526 259.432037,193.182281 258.063965,196.628174 
	C257.173950,197.017502 256.365967,197.057678 255.153168,197.124603 
	C253.235977,193.664246 251.723618,190.177109 250.168304,186.329071 
	C253.666290,183.896469 257.254517,182.274567 261.622864,185.249298 
	C261.979767,186.131104 261.991913,186.559952 262.004059,186.988785 
z"/>
<path fill="#0A1460" opacity="1.000000" stroke="none" 
	d="
M262.334290,187.144928 
	C261.991913,186.559952 261.979767,186.131104 261.956177,185.381668 
	C261.944763,185.061066 261.981842,184.601761 261.996826,184.373474 
	C266.734711,183.161163 271.457611,182.177155 276.534454,181.118546 
	C277.957611,184.083786 279.026764,187.123642 280.154388,190.550598 
	C274.363403,189.725494 268.513977,188.513275 262.334290,187.144928 
z"/>
<path fill="#1D2249" opacity="1.000000" stroke="none" 
	d="
M282.795532,128.694412 
	C282.529968,129.254059 281.928070,129.864151 281.377777,129.820740 
	C273.549744,129.203186 269.725098,133.373505 268.142212,140.833649 
	C266.734528,137.898392 265.387238,134.719910 264.361603,131.440796 
	C263.471893,128.596283 264.677887,126.819252 267.768402,127.038223 
	C272.681793,127.386345 277.579102,127.961723 282.795532,128.694412 
z"/>
<path fill="#101224" opacity="1.000000" stroke="none" 
	d="
M131.926849,233.446167 
	C127.746582,233.486740 123.407494,233.249542 118.629730,232.998688 
	C118.967247,230.190567 119.743462,227.396133 120.765396,224.373871 
	C124.596756,227.153503 128.182388,230.160965 131.926849,233.446167 
z"/>
<path fill="#06105C" opacity="1.000000" stroke="none" 
	d="
M138.300140,242.192551 
	C137.469467,240.631363 136.905319,239.263046 136.568909,237.628113 
	C138.167831,237.572342 139.539047,237.783203 140.910248,237.994049 
	C142.346161,238.674118 143.782059,239.354187 145.565613,240.100616 
	C145.920074,242.139664 145.926880,244.112350 145.892029,246.506943 
	C143.422455,245.414398 140.994553,243.899918 138.300140,242.192551 
z"/>
<path fill="#181E4C" opacity="1.000000" stroke="none" 
	d="
M172.961121,177.567215 
	C175.172653,177.178787 177.238495,177.071793 179.751572,177.003876 
	C177.692657,179.619583 175.186478,182.196228 172.394562,184.949646 
	C169.341583,182.408966 171.660248,180.185287 172.961121,177.567215 
z"/>
<path fill="#030C50" opacity="1.000000" stroke="none" 
	d="
M246.151184,174.371735 
	C251.656250,175.893066 252.210342,176.944855 249.426971,180.850800 
	C248.150696,178.904022 247.145432,176.821838 246.151184,174.371735 
z"/>
<path fill="#070E45" opacity="1.000000" stroke="none" 
	d="
M157.666901,160.112808 
	C159.138321,160.788147 160.401581,161.595169 161.859192,162.657196 
	C160.494644,162.372742 158.935730,161.833298 157.064758,161.113739 
	C156.966736,160.682098 157.202087,160.452377 157.666901,160.112808 
z"/>
<path fill="#030C50" opacity="1.000000" stroke="none" 
	d="
M215.929474,357.783936 
	C215.633179,357.768707 215.127380,357.566528 214.375626,357.251648 
	C214.659775,357.291626 215.189865,357.444305 215.929474,357.783936 
z"/>
<path fill="#00094B" opacity="1.000000" stroke="none" 
	d="
M238.999573,268.999390 
	C238.935333,269.039185 238.871521,269.079559 238.904465,269.060547 
	C239.001221,269.001190 239.000000,269.000000 238.999573,268.999390 
z"/>
<path fill="#101224" opacity="1.000000" stroke="none" 
	d="
M140.699310,237.752579 
	C139.539047,237.783203 138.167831,237.572342 136.450897,237.336533 
	C135.494324,236.417664 134.883499,235.523743 134.147430,234.334564 
	C136.177567,235.196564 138.332962,236.353836 140.699310,237.752579 
z"/>
</svg>